# xmcd
#
# Track frame offsets:
#	150
#	13062
#	26208
#	39076
#	58819
#	72577
#	81932
#	96429
#	110338
#	125154
#	137245
#	148958
#	165934
#	178492
#	191705
#	205914
#	222058
#	237858
#	254591
#	269237
#	288824
#	303250
#	316448
#	328446
#
# Disc length: 4585 seconds
#
# Revision: 1
# Processed by: cddbd v1.5.2PL0 Copyright (c) Steve Scherf et al.
# Submitted via: dBpowerAMP V4.0
#
DISCID=8511e718
DTITLE=Chitãozniho and Xororó - 2 Em 1  Somos Apaixonados  Fotografia
DYEAR=2003
DGENRE=Sertanejo
TTITLE0=Somos Apaixonados
TTITLE1=Fio De Cabelo
TTITLE2=Ela Fez Minha Cabeça
TTITLE3=Casa De Pecados
TTITLE4=Quem É Você
TTITLE5=Explosão De Amor
TTITLE6=Chama De Amor
TTITLE7=Debaixo Do Cobertor
TTITLE8=Uma Noite Especial
TTITLE9=Eu Quero É Amor
TTITLE10=Moço Pobre
TTITLE11=Obras De Poetas  (Os Passarinhos)
TTITLE12=Pago Dobrado
TTITLE13=Fotografia  (O Seu Retrato)
TTITLE14=Metade De Alguém
TTITLE15=Alma Ferida
TTITLE16=Pés Descalços
TTITLE17=Ela Chora, Chora
TTITLE18=Vem Provar De Mim
TTITLE19=Estrada
TTITLE20=Canção De Amor
TTITLE21=Gosto Amargo
TTITLE22=Só Trocando Coração
TTITLE23=Filho De Maria
EXTD=
EXTT0=
EXTT1=
EXTT2=
EXTT3=
EXTT4=
EXTT5=
EXTT6=
EXTT7=
EXTT8=
EXTT9=
EXTT10=
EXTT11=
EXTT12=
EXTT13=
EXTT14=
EXTT15=
EXTT16=
EXTT17=
EXTT18=
EXTT19=
EXTT20=
EXTT21=
EXTT22=
EXTT23=
PLAYORDER=
